<svg width="59" height="11" viewBox="0 0 59 11" fill="none" xmlns="http://www.w3.org/2000/svg">
<path d="M0.837 9V2.646H3.168C4.329 2.646 5.157 3.429 5.157 4.635C5.157 5.841 4.329 6.651 3.168 6.651H1.728V9H0.837ZM1.728 5.877H3.024C3.78 5.877 4.257 5.4 4.257 4.635C4.257 3.879 3.78 3.42 3.033 3.42H1.728V5.877ZM5.62317 7.758C5.62317 6.327 7.39617 6.165 8.34117 6.165H8.57517V6.075C8.57517 5.328 8.14317 5.076 7.57617 5.076C7.12617 5.076 6.66717 5.256 6.29817 5.517L5.94717 4.878C6.31617 4.572 7.00917 4.338 7.64817 4.338C8.79117 4.338 9.44817 4.968 9.44817 6.12V9H8.62917V8.541C8.62917 8.334 8.65617 8.181 8.65617 8.181H8.63817C8.37717 8.703 7.81917 9.108 7.14417 9.108C6.35217 9.108 5.62317 8.613 5.62317 7.758ZM6.49617 7.686C6.49617 8.046 6.78417 8.415 7.35117 8.415C8.11617 8.415 8.57517 7.641 8.57517 6.966V6.795H8.35017C7.70217 6.795 6.49617 6.849 6.49617 7.686ZM10.2975 8.442L10.7025 7.866C10.9095 8.082 11.3415 8.406 11.8905 8.406C12.4125 8.406 12.8355 8.154 12.8355 7.659C12.8355 7.218 12.5385 6.966 11.8995 6.966H11.3415V6.336H11.8185C12.3315 6.336 12.6825 6.138 12.6825 5.679C12.6825 5.256 12.3765 5.022 11.8725 5.022C11.4765 5.022 11.1165 5.157 10.7655 5.418L10.4415 4.833C10.7925 4.572 11.3055 4.338 12.0255 4.338C12.8895 4.338 13.5645 4.761 13.5645 5.571C13.5645 6.138 13.2585 6.453 12.8985 6.606V6.624C13.3575 6.768 13.7175 7.11 13.7175 7.695C13.7175 8.631 12.9075 9.108 11.9715 9.108C11.2695 9.108 10.6755 8.802 10.2975 8.442ZM14.7727 9V4.446H16.6537C17.5717 4.446 18.1747 4.851 18.1747 5.616C18.1747 6.057 17.9407 6.435 17.5267 6.615V6.624C18.0937 6.759 18.3907 7.2 18.3907 7.704C18.3907 8.55 17.7067 9 16.7167 9H14.7727ZM15.6457 6.372H16.5007C17.0227 6.372 17.2837 6.102 17.2837 5.679C17.2837 5.265 17.0227 5.049 16.4737 5.049H15.6457V6.372ZM15.6457 8.388H16.5817C17.2117 8.388 17.5087 8.1 17.5087 7.677C17.5087 7.227 17.1757 6.957 16.5727 6.957H15.6457V8.388ZM19.1514 6.723C19.1514 5.274 20.1414 4.338 21.4374 4.338C22.7244 4.338 23.4084 5.301 23.4084 6.471C23.4084 6.588 23.3904 6.714 23.3724 6.84H20.0604C20.1054 7.821 20.8074 8.352 21.6264 8.352C22.1124 8.352 22.6074 8.145 22.9674 7.821L23.3364 8.46C22.8954 8.865 22.2024 9.108 21.5724 9.108C20.1414 9.108 19.1514 8.073 19.1514 6.723ZM20.0874 6.21H22.5264C22.4994 5.427 22.0134 5.013 21.4194 5.013C20.7444 5.013 20.2134 5.454 20.0874 6.21ZM24.4582 10.8V4.446H25.2682V4.851C25.2682 5.04 25.2412 5.193 25.2412 5.193H25.2592C25.5472 4.644 26.1232 4.338 26.7892 4.338C28.0222 4.338 28.7872 5.31 28.7872 6.723C28.7872 8.172 27.9232 9.108 26.7262 9.108C26.1502 9.108 25.6282 8.82 25.3132 8.334H25.2952C25.2952 8.334 25.3312 8.496 25.3312 8.73V10.8H24.4582ZM25.3042 6.741C25.3042 7.551 25.7542 8.352 26.5912 8.352C27.3112 8.352 27.9052 7.767 27.9052 6.732C27.9052 5.742 27.3742 5.103 26.6182 5.103C25.9342 5.103 25.3042 5.589 25.3042 6.741ZM29.8635 9V4.446H30.7365V6.3H33.0405V4.446H33.9135V9H33.0405V7.047H30.7365V9H29.8635ZM35.035 9.945C35.035 9.945 35.287 10.143 35.557 10.143C35.917 10.143 36.214 9.882 36.385 9.468L36.61 8.946L34.702 4.446H35.683L36.826 7.425C36.916 7.65 36.997 7.974 36.997 7.974H37.015C37.015 7.974 37.087 7.668 37.168 7.434L38.275 4.446H39.22L37.078 9.819C36.808 10.53 36.241 10.89 35.602 10.89C35.098 10.89 34.729 10.611 34.729 10.611L35.035 9.945ZM41.1744 9V5.193H39.5904V4.446H43.6314V5.193H42.0384V9H41.1744ZM44.4885 9V4.446H45.3615V6.093H46.2795C47.2245 6.093 47.9355 6.525 47.9355 7.56C47.9355 8.415 47.4135 9 46.2615 9H44.4885ZM45.3615 8.37H46.1445C46.7745 8.37 47.0445 8.028 47.0445 7.551C47.0445 7.065 46.7745 6.723 46.1445 6.723H45.3615V8.37Z" fill="#7953C3"/>
<path d="M58 5L55.5 7L53 5" stroke="#7953C3" stroke-width="0.8"/>
</svg>
