<svg width="51" height="9" viewBox="0 0 51 9" fill="none" xmlns="http://www.w3.org/2000/svg">
<path d="M0.45 3.787C0.45 1.942 1.791 0.538 3.681 0.538C4.5 0.538 5.391 0.789999 6.003 1.375L5.553 2.041C5.085 1.627 4.374 1.348 3.717 1.348C2.241 1.348 1.368 2.437 1.368 3.778C1.368 5.128 2.259 6.289 3.735 6.289C4.446 6.289 5.175 5.974 5.688 5.461L6.165 6.1C5.625 6.64 4.833 7.108 3.708 7.108C1.737 7.108 0.45 5.65 0.45 3.787ZM7.08223 7V2.446H8.96323C9.88123 2.446 10.4842 2.851 10.4842 3.616C10.4842 4.057 10.2502 4.435 9.83623 4.615V4.624C10.4032 4.759 10.7002 5.2 10.7002 5.704C10.7002 6.55 10.0162 7 9.02623 7H7.08223ZM7.95523 4.372H8.81023C9.33223 4.372 9.59323 4.102 9.59323 3.679C9.59323 3.265 9.33223 3.049 8.78323 3.049H7.95523V4.372ZM7.95523 6.388H8.89123C9.52123 6.388 9.81823 6.1 9.81823 5.677C9.81823 5.227 9.48523 4.957 8.88223 4.957H7.95523V6.388ZM11.461 4.723C11.461 3.274 12.451 2.338 13.747 2.338C15.034 2.338 15.718 3.301 15.718 4.471C15.718 4.588 15.7 4.714 15.682 4.84H12.37C12.415 5.821 13.117 6.352 13.936 6.352C14.422 6.352 14.917 6.145 15.277 5.821L15.646 6.46C15.205 6.865 14.512 7.108 13.882 7.108C12.451 7.108 11.461 6.073 11.461 4.723ZM12.397 4.21H14.836C14.809 3.427 14.323 3.013 13.729 3.013C13.054 3.013 12.523 3.454 12.397 4.21ZM16.7678 8.8V2.446H17.5778V2.851C17.5778 3.04 17.5508 3.193 17.5508 3.193H17.5688C17.8568 2.644 18.4328 2.338 19.0988 2.338C20.3318 2.338 21.0968 3.31 21.0968 4.723C21.0968 6.172 20.2328 7.108 19.0358 7.108C18.4598 7.108 17.9378 6.82 17.6228 6.334H17.6048C17.6048 6.334 17.6408 6.496 17.6408 6.73V8.8H16.7678ZM17.6138 4.741C17.6138 5.551 18.0638 6.352 18.9008 6.352C19.6208 6.352 20.2148 5.767 20.2148 4.732C20.2148 3.742 19.6838 3.103 18.9278 3.103C18.2438 3.103 17.6138 3.589 17.6138 4.741ZM22.173 7V2.446H23.046V4.3H25.35V2.446H26.223V7H25.35V5.047H23.046V7H22.173ZM27.3445 7.945C27.3445 7.945 27.5965 8.143 27.8665 8.143C28.2265 8.143 28.5235 7.882 28.6945 7.468L28.9195 6.946L27.0115 2.446H27.9925L29.1355 5.425C29.2255 5.65 29.3065 5.974 29.3065 5.974H29.3245C29.3245 5.974 29.3965 5.668 29.4775 5.434L30.5845 2.446H31.5295L29.3875 7.819C29.1175 8.53 28.5505 8.89 27.9115 8.89C27.4075 8.89 27.0385 8.611 27.0385 8.611L27.3445 7.945ZM33.4839 7V3.193H31.8999V2.446H35.9409V3.193H34.3479V7H33.4839ZM36.798 7V2.446H37.671V4.093H38.589C39.534 4.093 40.245 4.525 40.245 5.56C40.245 6.415 39.723 7 38.571 7H36.798ZM37.671 6.37H38.454C39.084 6.37 39.354 6.028 39.354 5.551C39.354 5.065 39.084 4.723 38.454 4.723H37.671V6.37Z" fill="#7953C3"/>
<path d="M45 4L47.5 2L50 4" stroke="#7953C3" stroke-width="0.8"/>
</svg>
